<svg width="20" height="20" viewBox="0 0 46 46" fill="none" xmlns="http://www.w3.org/2000/svg">
<path d="M30.5283 23C30.5283 24.8648 29.7875 26.6532 28.4689 27.9718C27.1503 29.2905 25.3619 30.0313 23.4971 30.0313C21.6323 30.0313 19.8438 29.2905 18.5252 27.9718C17.2066 26.6532 16.4658 24.8648 16.4658 23C16.4658 22.5992 16.508 22.2078 16.5807 21.8281H14.1221V31.1961C14.1221 31.8477 14.6494 32.375 15.301 32.375H31.6955C32.0078 32.3744 32.307 32.2499 32.5276 32.0289C32.7482 31.8079 32.8721 31.5084 32.8721 31.1961V21.8281H30.4135C30.4861 22.2078 30.5283 22.5992 30.5283 23ZM23.4971 27.6875C24.1128 27.6873 24.7225 27.5659 25.2913 27.3301C25.8601 27.0944 26.3768 26.7489 26.8121 26.3134C27.2474 25.8779 27.5926 25.3609 27.8281 24.792C28.0636 24.2231 28.1847 23.6134 28.1846 22.9977C28.1844 22.3819 28.063 21.7723 27.8272 21.2035C27.5914 20.6347 27.246 20.1179 26.8105 19.6826C26.375 19.2473 25.858 18.9021 25.2891 18.6666C24.7202 18.4311 24.1105 18.31 23.4947 18.3102C22.2512 18.3105 21.0588 18.8047 20.1797 19.6843C19.3006 20.5638 18.8069 21.7565 18.8072 23C18.8075 24.2435 19.3018 25.436 20.1813 26.3151C21.0609 27.1941 22.2536 27.6878 23.4971 27.6875ZM29.1221 18.0781H31.9322C32.1189 18.0781 32.298 18.0041 32.4302 17.8723C32.5625 17.7405 32.6371 17.5617 32.6377 17.375V14.5648C32.6377 14.3777 32.5634 14.1983 32.4311 14.066C32.2988 13.9337 32.1193 13.8594 31.9322 13.8594H29.1221C28.935 13.8594 28.7555 13.9337 28.6232 14.066C28.4909 14.1983 28.4166 14.3777 28.4166 14.5648V17.375C28.4189 17.7617 28.7354 18.0781 29.1221 18.0781ZM23.4971 0.5C17.5297 0.5 11.8067 2.87053 7.58717 7.0901C3.3676 11.3097 0.99707 17.0326 0.99707 23C0.99707 28.9674 3.3676 34.6903 7.58717 38.9099C11.8067 43.1295 17.5297 45.5 23.4971 45.5C26.4518 45.5 29.3776 44.918 32.1074 43.7873C34.8373 42.6566 37.3177 40.9992 39.407 38.9099C41.4963 36.8206 43.1536 34.3402 44.2844 31.6104C45.4151 28.8806 45.9971 25.9547 45.9971 23C45.9971 20.0453 45.4151 17.1194 44.2844 14.3896C43.1536 11.6598 41.4963 9.17942 39.407 7.0901C37.3177 5.00078 34.8373 3.34344 32.1074 2.21271C29.3776 1.08198 26.4518 0.5 23.4971 0.5ZM35.2158 32.1148C35.2158 33.5469 34.0439 34.7188 32.6119 34.7188H14.3822C12.9502 34.7188 11.7783 33.5469 11.7783 32.1148V13.8852C11.7783 12.4531 12.9502 11.2812 14.3822 11.2812H32.6119C34.0439 11.2812 35.2158 12.4531 35.2158 13.8852V32.1148Z" fill="#002647"/>
</svg>
