<svg width="25" height="25" viewBox="0 0 46 46" fill="none" xmlns="http://www.w3.org/2000/svg">
<path d="M41.3895 11.7019C41.409 12.1894 41.4164 12.683 41.4164 13.1706C41.4164 28.1886 32.1302 45.5 15.1501 45.5C9.93348 45.5 5.08375 43.619 0.99707 40.3927C3.41429 40.7524 5.86543 40.5223 8.21037 39.7157C10.5553 38.9091 12.7481 37.5417 14.6634 35.6916C12.7372 35.6468 10.8706 34.8624 9.32446 33.4481C7.77833 32.0338 6.63 30.0602 6.04 27.8034C7.42439 28.122 8.84918 28.0551 10.2098 27.6078C8.12031 27.0863 6.24153 25.6919 4.89189 23.6608C3.54225 21.6297 2.80476 19.0868 2.80441 16.4631V16.3216C4.08641 17.1992 5.52022 17.6873 6.98647 17.7452C5.02964 16.1398 3.64443 13.6759 3.11358 10.8565C2.58272 8.037 2.94625 5.0745 4.12995 2.57365C6.44791 6.08426 9.34005 8.95557 12.6185 11.0011C15.897 13.0466 19.4884 14.2205 23.1596 14.4466C23.0007 13.5968 22.9212 12.7274 22.9223 11.8553C22.9223 10.3639 23.1611 8.88704 23.625 7.50915C24.0888 6.13127 24.7688 4.87933 25.6259 3.82485C26.483 2.77037 27.5005 1.93401 28.6203 1.36352C29.7401 0.793043 30.9403 0.49962 32.1522 0.500015C33.4153 0.49748 34.6654 0.814341 35.8248 1.43094C36.9843 2.04754 38.0284 2.95073 38.8924 4.08448C40.9593 3.58097 42.9417 2.64875 44.7547 1.32766C44.0651 3.95869 42.6224 6.19189 40.6949 7.61177C42.5249 7.3448 44.3121 6.74221 45.9971 5.82405C44.7592 8.10667 43.1986 10.0975 41.3895 11.7019Z" fill="#002647"/>
</svg>
