<svg width="25" height="25" viewBox="0 0 46 46" fill="none" xmlns="http://www.w3.org/2000/svg">
<path d="M23.4971 0.5C11.0705 0.5 0.99707 10.5734 0.99707 23C0.99707 35.4266 11.0705 45.5 23.4971 45.5C35.9236 45.5 45.9971 35.4266 45.9971 23C45.9971 10.5734 35.9236 0.5 23.4971 0.5ZM17.9893 32.3258H13.433V17.6633H17.9893V32.3258ZM15.683 15.8633C14.2439 15.8633 13.3135 14.8437 13.3135 13.5828C13.3135 12.2961 14.2721 11.307 15.7416 11.307C17.2111 11.307 18.1111 12.2961 18.1393 13.5828C18.1393 14.8437 17.2111 15.8633 15.683 15.8633ZM34.6299 32.3258H30.0736V24.2C30.0736 22.3086 29.4127 21.0242 27.765 21.0242C26.5064 21.0242 25.7588 21.8938 25.4283 22.7305C25.3064 23.0281 25.276 23.45 25.276 23.8695V32.3234H20.7174V22.3391C20.7174 20.5086 20.6588 18.9781 20.5979 17.6609H24.5564L24.765 19.6977H24.8564C25.4564 18.7414 26.926 17.3305 29.3846 17.3305C32.3822 17.3305 34.6299 19.3391 34.6299 23.6562V32.3258Z" fill="#002647"/>
</svg>
