<svg width="25" height="25" viewBox="0 0 46 46" fill="none" xmlns="http://www.w3.org/2000/svg">
<path d="M45.9601 21.673C45.1952 8.62333 33.3392 -1.43395 19.6835 0.816006C10.2797 2.36848 2.74318 9.99578 1.28088 19.4005C0.425988 24.8454 1.55089 29.9978 4.00307 34.2502L2.0008 41.6976C1.55086 43.385 3.10312 44.915 4.7679 44.4425L12.102 42.4176C15.4315 44.375 19.3235 45.5 23.4855 45.5C36.1738 45.5 46.7025 34.3177 45.9601 21.673ZM34.4866 31.3703C34.2841 31.7753 34.0366 32.1578 33.7217 32.5178C33.1592 33.1252 32.5518 33.5752 31.8769 33.8452C31.202 34.1377 30.4596 34.2727 29.6722 34.2727C28.5248 34.2727 27.2875 34.003 26.0052 33.4405C24.7003 32.878 23.418 32.1353 22.1357 31.2128C20.8308 30.2678 19.616 29.2103 18.4462 28.0628C17.2763 26.8929 16.2414 25.6554 15.2965 24.3729C14.3741 23.0904 13.6318 21.808 13.0918 20.5255C12.5519 19.243 12.282 18.0057 12.282 16.8357C12.282 16.0707 12.4169 15.3282 12.6869 14.6532C12.9569 13.9557 13.3844 13.3258 13.9918 12.7633C14.7117 12.0433 15.499 11.7058 16.3314 11.7058C16.6464 11.7058 16.9613 11.7733 17.2537 11.9083C17.5462 12.0433 17.8162 12.2458 18.0187 12.5382L20.6284 16.2282C20.8308 16.5206 20.9883 16.7681 21.0783 17.0156C21.1908 17.2631 21.2358 17.4881 21.2358 17.7131C21.2358 17.9831 21.1458 18.2532 20.9883 18.523C20.8308 18.793 20.6284 19.063 20.3584 19.333L19.5035 20.233C19.3685 20.368 19.3235 20.503 19.3235 20.683C19.3235 20.773 19.346 20.863 19.3685 20.953C19.4135 21.043 19.436 21.1105 19.4585 21.178C19.661 21.5605 20.0209 22.033 20.5159 22.618C21.0333 23.2029 21.5732 23.8104 22.1582 24.3954C22.7656 25.0029 23.3505 25.5429 23.9579 26.0604C24.5429 26.5554 25.0378 26.8929 25.4202 27.0954C25.4877 27.1179 25.5552 27.1629 25.6227 27.1854C25.7127 27.2304 25.8027 27.2304 25.9152 27.2304C26.1177 27.2304 26.2526 27.1629 26.3876 27.0279L27.2425 26.1729C27.535 25.8804 27.8049 25.6779 28.0524 25.5429C28.3224 25.3854 28.5698 25.2954 28.8623 25.2954C29.0873 25.2954 29.3122 25.3404 29.5597 25.4529C29.8072 25.5654 30.0771 25.7004 30.3471 25.9029L34.0816 28.5578C34.3741 28.7603 34.5765 29.0078 34.7115 29.2778C34.824 29.5703 34.8915 29.8403 34.8915 30.1553C34.7565 30.5378 34.6665 30.9653 34.4866 31.3703Z" fill="#002647"/>
</svg>
