<svg width="40" height="40" viewBox="0 0 59 46" fill="none" xmlns="http://www.w3.org/2000/svg">
<g filter="url(#filter0_d_21_13)">
<path d="M15.3981 14.925C14.8406 14.925 14.3056 15.01 13.7731 15.0875C13.9456 14.5075 14.1231 13.9175 14.4081 13.3875C14.6931 12.6175 15.1381 11.95 15.5806 11.2775C15.9506 10.55 16.6031 10.0575 17.0831 9.435C17.5856 8.83 18.2706 8.4275 18.8131 7.925C19.3456 7.4 20.0431 7.1375 20.5981 6.7675C21.1781 6.435 21.6831 6.0675 22.2231 5.8925L23.5706 5.3375L24.7556 4.845L23.5431 0L22.0506 0.359999C21.5731 0.479999 20.9906 0.619999 20.3281 0.787499C19.6506 0.912499 18.9281 1.255 18.1231 1.5675C17.3281 1.9225 16.4081 2.1625 15.5531 2.7325C14.6931 3.2775 13.7006 3.7325 12.8256 4.4625C11.9781 5.215 10.9556 5.8675 10.2006 6.825C9.37557 7.72 8.56057 8.66 7.92807 9.73C7.19557 10.75 6.69807 11.87 6.17307 12.9775C5.69807 14.085 5.31557 15.2175 5.00307 16.3175C4.41057 18.5225 4.14557 20.6175 4.04307 22.41C3.95807 24.205 4.00807 25.6975 4.11307 26.7775C4.15057 27.2875 4.22057 27.7825 4.27057 28.125L4.33307 28.545L4.39807 28.53C4.84272 30.6071 5.86633 32.5158 7.35048 34.0354C8.83463 35.5551 10.7187 36.6235 12.7847 37.1171C14.8507 37.6106 17.0142 37.5092 19.025 36.8246C21.0357 36.1399 22.8116 34.9 24.1471 33.2482C25.4826 31.5964 26.3232 29.6003 26.5716 27.4907C26.82 25.3812 26.4662 23.2444 25.5509 21.3276C24.6356 19.4107 23.1964 17.7922 21.3997 16.6591C19.603 15.5261 17.5222 14.9249 15.3981 14.925ZM42.8981 14.925C42.3406 14.925 41.8056 15.01 41.2731 15.0875C41.4456 14.5075 41.6231 13.9175 41.9081 13.3875C42.1931 12.6175 42.6381 11.95 43.0806 11.2775C43.4506 10.55 44.1031 10.0575 44.5831 9.435C45.0856 8.83 45.7706 8.4275 46.3131 7.925C46.8456 7.4 47.5431 7.1375 48.0981 6.7675C48.6781 6.435 49.1831 6.0675 49.7231 5.8925L51.0706 5.3375L52.2556 4.845L51.0431 0L49.5506 0.359999C49.0731 0.479999 48.4906 0.619999 47.8281 0.787499C47.1506 0.912499 46.4281 1.255 45.6231 1.5675C44.8306 1.925 43.9081 2.1625 43.0531 2.735C42.1931 3.28 41.2006 3.735 40.3256 4.465C39.4781 5.2175 38.4556 5.87 37.7006 6.825C36.8756 7.72 36.0606 8.66 35.4281 9.73C34.6956 10.75 34.1981 11.87 33.6731 12.9775C33.1981 14.085 32.8156 15.2175 32.5031 16.3175C31.9106 18.5225 31.6456 20.6175 31.5431 22.41C31.4581 24.205 31.5081 25.6975 31.6131 26.7775C31.6506 27.2875 31.7206 27.7825 31.7706 28.125L31.8331 28.545L31.8981 28.53C32.3427 30.6071 33.3663 32.5158 34.8505 34.0354C36.3346 35.5551 38.2187 36.6235 40.2847 37.1171C42.3507 37.6106 44.5142 37.5092 46.525 36.8246C48.5357 36.1399 50.3116 34.9 51.6471 33.2482C52.9826 31.5964 53.8232 29.6003 54.0716 27.4907C54.32 25.3812 53.9662 23.2444 53.0509 21.3276C52.1356 19.4107 50.6964 17.7922 48.8997 16.6591C47.103 15.5261 45.0222 14.9249 42.8981 14.925Z" fill="#002647"/>
</g>
<defs>
<filter id="filter0_d_21_13" x="0" y="0" width="58.1488" height="45.425" filterUnits="userSpaceOnUse" color-interpolation-filters="sRGB">
<feFlood flood-opacity="0" result="BackgroundImageFix"/>
<feColorMatrix in="SourceAlpha" type="matrix" values="0 0 0 0 0 0 0 0 0 0 0 0 0 0 0 0 0 0 127 0" result="hardAlpha"/>
<feOffset dy="4"/>
<feGaussianBlur stdDeviation="2"/>
<feComposite in2="hardAlpha" operator="out"/>
<feColorMatrix type="matrix" values="0 0 0 0 0 0 0 0 0 0 0 0 0 0 0 0 0 0 0.25 0"/>
<feBlend mode="normal" in2="BackgroundImageFix" result="effect1_dropShadow_21_13"/>
<feBlend mode="normal" in="SourceGraphic" in2="effect1_dropShadow_21_13" result="shape"/>
</filter>
</defs>
</svg>
